<!DOCTYPE svg PUBLIC "-//W3C//DTD SVG 1.1//EN" "http://www.w3.org/Graphics/SVG/1.1/DTD/svg11.dtd">
<!-- Uploaded to: SVG Repo, www.svgrepo.com, Transformed by: SVG Repo Mixer Tools -->
<svg xmlns:dc="http://purl.org/dc/elements/1.1/" xmlns:cc="http://creativecommons.org/ns#" xmlns:rdf="http://www.w3.org/1999/02/22-rdf-syntax-ns#" xmlns:svg="http://www.w3.org/2000/svg" xmlns="http://www.w3.org/2000/svg" xmlns:sodipodi="http://sodipodi.sourceforge.net/DTD/sodipodi-0.dtd" xmlns:inkscape="http://www.inkscape.org/namespaces/inkscape" width="800px" height="800px" viewBox="-103.04 -103.04 654.08 654.08" id="svg2" version="1.1" inkscape:version="0.91 r13725" sodipodi:docname="editor-list-bullet.svg" fill="#313649" transform="matrix(1, 0, 0, 1, 0, 0)rotate(0)" stroke="#313649">
<g id="SVGRepo_bgCarrier" stroke-width="0" transform="translate(0,0), scale(1)">
<rect x="-103.04" y="-103.04" width="654.08" height="654.08" rx="98.11200000000001" fill="#d5dfe2" strokewidth="0"/>
</g>
<g id="SVGRepo_tracerCarrier" stroke-linecap="round" stroke-linejoin="round" stroke="#CCCCCC" stroke-width="15.232000000000003"> <defs id="defs4"/> <sodipodi:namedview id="base" pagecolor="#ffffff" bordercolor="#666666" borderopacity="1.0" inkscape:pageopacity="0.0" inkscape:pageshadow="2" inkscape:zoom="0.98994949" inkscape:cx="109.45476" inkscape:cy="264.72577" inkscape:document-units="px" inkscape:current-layer="layer1" showgrid="true" fit-margin-top="448" fit-margin-right="384" fit-margin-left="0" fit-margin-bottom="0" units="px" inkscape:window-width="1196" inkscape:window-height="852" inkscape:window-x="132" inkscape:window-y="423" inkscape:window-maximized="0" inkscape:snap-bbox="true" inkscape:bbox-nodes="true"> <inkscape:grid type="xygrid" id="grid3347" spacingx="16" spacingy="16" empspacing="2" originx="0" originy="-1.7498462e-005"/> </sodipodi:namedview> <metadata id="metadata7"> <rdf:rdf> <cc:work rdf:about=""> <dc:format>image/svg+xml</dc:format> <dc:type rdf:resource="http://purl.org/dc/dcmitype/StillImage"/> <dc:title/> </cc:work> </rdf:rdf> </metadata> <g inkscape:label="Layer 1" inkscape:groupmode="layer" id="layer1" transform="translate(0,-604.36224)"> <path id="circle3344" style="fill-opacity:1;stroke:none;stroke-width:24;stroke-linecap:round;stroke-miterlimit:4;stroke-dasharray:none;stroke-opacity:1" d="m 96,956.36224 a 48,48 0 0 1 -48,47.99996 48,48 0 0 1 -48,-47.99996 48,48 0 0 1 48,-48 48,48 0 0 1 48,48 z m 0,-128 a 48,48 0 0 1 -48,48 48,48 0 0 1 -48,-48 48,48 0 0 1 48,-48 48,48 0 0 1 48,48 z m 0,-128 a 48,48 0 0 1 -48,48 48,48 0 0 1 -48,-48 48,48 0 0 1 48,-48 48,48 0 0 1 48,48 z m 64,224 288,0 0,64 -288,0 z m 0,-128 288,0 0,64 -288,0 z m 0,-128 288,0 0,64 -288,0 z"/> </g> </g>
<g id="SVGRepo_iconCarrier"> <defs id="defs4"/> <sodipodi:namedview id="base" pagecolor="#ffffff" bordercolor="#666666" borderopacity="1.0" inkscape:pageopacity="0.0" inkscape:pageshadow="2" inkscape:zoom="0.98994949" inkscape:cx="109.45476" inkscape:cy="264.72577" inkscape:document-units="px" inkscape:current-layer="layer1" showgrid="true" fit-margin-top="448" fit-margin-right="384" fit-margin-left="0" fit-margin-bottom="0" units="px" inkscape:window-width="1196" inkscape:window-height="852" inkscape:window-x="132" inkscape:window-y="423" inkscape:window-maximized="0" inkscape:snap-bbox="true" inkscape:bbox-nodes="true"> <inkscape:grid type="xygrid" id="grid3347" spacingx="16" spacingy="16" empspacing="2" originx="0" originy="-1.7498462e-005"/> </sodipodi:namedview> <metadata id="metadata7"> <rdf:rdf> <cc:work rdf:about=""> <dc:format>image/svg+xml</dc:format> <dc:type rdf:resource="http://purl.org/dc/dcmitype/StillImage"/> <dc:title/> </cc:work> </rdf:rdf> </metadata> <g inkscape:label="Layer 1" inkscape:groupmode="layer" id="layer1" transform="translate(0,-604.36224)"> <path id="circle3344" style="fill-opacity:1;stroke:none;stroke-width:24;stroke-linecap:round;stroke-miterlimit:4;stroke-dasharray:none;stroke-opacity:1" d="m 96,956.36224 a 48,48 0 0 1 -48,47.99996 48,48 0 0 1 -48,-47.99996 48,48 0 0 1 48,-48 48,48 0 0 1 48,48 z m 0,-128 a 48,48 0 0 1 -48,48 48,48 0 0 1 -48,-48 48,48 0 0 1 48,-48 48,48 0 0 1 48,48 z m 0,-128 a 48,48 0 0 1 -48,48 48,48 0 0 1 -48,-48 48,48 0 0 1 48,-48 48,48 0 0 1 48,48 z m 64,224 288,0 0,64 -288,0 z m 0,-128 288,0 0,64 -288,0 z m 0,-128 288,0 0,64 -288,0 z"/> </g> </g>
</svg>